<svg width="13" height="13" viewBox="0 0 13 13" fill="none" xmlns="http://www.w3.org/2000/svg">
<path d="M6.50879 0.75C7.83883 0.752126 9.12741 1.21527 10.1543 2.06055C11.1811 2.90579 11.8829 4.08103 12.1406 5.38574C12.3983 6.69057 12.1958 8.04462 11.5674 9.2168C10.9389 10.389 9.92375 11.3079 8.69434 11.8154C7.46504 12.3229 6.09745 12.3883 4.8252 12.001C3.5528 11.6135 2.45366 10.7961 1.71582 9.68945C0.978138 8.58293 0.646864 7.255 0.77832 5.93164C0.909907 4.60806 1.49621 3.37042 2.4375 2.43066C2.97236 1.8967 3.60708 1.47296 4.30566 1.18457C5.00421 0.896214 5.75308 0.748846 6.50879 0.75Z" fill="#FF0033" stroke="white" stroke-width="1.5"/>
<path fill-rule="evenodd" clip-rule="evenodd" d="M6.94708 7.37446V6.43258L8.14177 6.44039C8.26157 6.44118 8.37991 6.46686 8.48927 6.51578C8.59863 6.5647 8.69663 6.6358 8.77707 6.72459C8.85751 6.81337 8.91863 6.9179 8.95656 7.03154C8.99449 7.14519 9.00839 7.26547 8.9974 7.38477C8.9974 8.71383 6.95052 8.99852 6.94865 7.37446M6.94865 4.87664C9.15271 3.72039 9.34708 6.26071 8.01615 6.13946H6.94302L6.94865 4.87664ZM8.86927 6.2557C10.4493 5.6507 9.12865 3.29476 6.54271 4.75226C6.27721 4.53572 5.9609 4.39043 5.62365 4.33008C4.98489 4.20039 4.12802 4.3132 3.6474 4.76195L3.87958 4.98977C4.12845 4.77533 4.43313 4.63603 4.75813 4.58812C5.08313 4.5402 5.41505 4.58564 5.71521 4.71914C5.81605 4.76673 5.90491 4.83637 5.97523 4.92291C6.04554 5.00946 6.09552 5.1107 6.12146 5.21914L6.13302 7.38352C6.03927 8.88696 4.10177 8.77071 4.10177 7.38352V6.43414H5.62458V6.14758H3.29865V7.08227C3.30458 8.85883 5.46552 9.15758 6.53583 8.29321C6.97354 8.61773 7.50922 8.7825 8.05365 8.76008C9.97208 8.74695 10.3661 6.6782 8.86365 6.25727L8.86927 6.2557Z" fill="white"/>
</svg>
