<svg width="23" height="23" viewBox="0 0 23 23" fill="none" xmlns="http://www.w3.org/2000/svg">
<path d="M11.5176 0.75C14.0041 0.754062 16.4123 1.61995 18.332 3.2002C20.2519 4.78063 21.5652 6.97836 22.0469 9.41797C22.5284 11.8574 22.1486 14.3887 20.9736 16.5801C19.7985 18.7715 17.9 20.4877 15.6016 21.4365C13.303 22.3853 10.7469 22.5077 8.36816 21.7832C5.98934 21.0587 3.93511 19.5319 2.55566 17.4629C1.17636 15.3939 0.556739 12.9109 0.802734 10.4365C1.04874 7.96201 2.14546 5.64951 3.90527 3.89258C4.90529 2.89422 6.09228 2.10266 7.39844 1.56348C8.7046 1.02432 10.1045 0.747742 11.5176 0.75Z" fill="#FF0033" stroke="white" stroke-width="1.5"/>
<path fill-rule="evenodd" clip-rule="evenodd" d="M12.3942 13.2489V11.3651L14.7835 11.3807C15.0231 11.3823 15.2598 11.4337 15.4785 11.5315C15.6973 11.6293 15.8933 11.7715 16.0541 11.9491C16.215 12.1267 16.3373 12.3357 16.4131 12.563C16.489 12.7903 16.5168 13.0309 16.4948 13.2695C16.4948 15.9276 12.401 16.497 12.3973 13.2489M12.3973 8.25322C16.8054 5.94072 17.1942 11.0214 14.5323 10.7789H12.386L12.3973 8.25322ZM16.2385 11.0113C19.3985 9.80134 16.7573 5.08946 11.5854 8.00446C11.0544 7.57138 10.4218 7.28079 9.74729 7.1601C8.46979 6.90073 6.75604 7.12634 5.79479 8.02384L6.25917 8.47947C6.7569 8.05059 7.36627 7.772 8.01626 7.67617C8.66625 7.58034 9.33009 7.67123 9.93042 7.93822C10.1321 8.03341 10.3098 8.17268 10.4505 8.34577C10.5911 8.51885 10.691 8.72133 10.7429 8.93823L10.766 13.267C10.5785 16.2738 6.70354 16.0413 6.70354 13.267V11.3682H9.74917V10.7951H5.09729V12.6645C5.10917 16.2176 9.43104 16.8151 11.5717 15.0864C12.4471 15.7354 13.5184 16.0649 14.6073 16.0201C18.4442 15.9938 19.2323 11.8563 16.2273 11.0145L16.2385 11.0113Z" fill="white"/>
</svg>
