<svg width="19" height="19" viewBox="0 0 19 19" fill="none" xmlns="http://www.w3.org/2000/svg">
<path d="M13.2499 6.58333C13.248 4.11909 13.2106 2.84267 12.4934 1.96869C12.3549 1.79991 12.2001 1.64515 12.0313 1.50663C11.1094 0.75 9.73957 0.75 7 0.75C4.26043 0.75 2.89065 0.75 1.96869 1.50663C1.79991 1.64515 1.64515 1.79991 1.50663 1.96869C0.75 2.89065 0.75 4.26043 0.75 7C0.75 9.73957 0.75 11.1094 1.50663 12.0313C1.64515 12.2001 1.79991 12.3549 1.96869 12.4934C2.84267 13.2106 4.11909 13.248 6.58333 13.2499M11.5833 17.4167H12.4167C14.7737 17.4167 15.9522 17.4167 16.6844 16.6844C17.4167 15.9522 17.4167 14.7737 17.4167 12.4167V11.5833C17.4167 9.22631 17.4167 8.0478 16.6844 7.31557C15.9522 6.58333 14.7737 6.58333 12.4167 6.58333H11.5833C9.22631 6.58333 8.0478 6.58333 7.31557 7.31557C6.58333 8.0478 6.58333 9.22631 6.58333 11.5833V12.4167C6.58333 14.7737 6.58333 15.9522 7.31557 16.6844C8.0478 17.4167 9.22631 17.4167 11.5833 17.4167Z" stroke="#4B5565" stroke-width="1.5" stroke-linecap="round" stroke-linejoin="round"/>
</svg>
