<svg width="18" height="18" viewBox="0 0 18 18" fill="none" xmlns="http://www.w3.org/2000/svg">
<g clip-path="url(#clip0_203_2972)">
<path d="M18 9C18 13.9705 13.9705 18 9 18C4.02947 18 0 13.9705 0 9C0 9.00211 9 0.00101953 9 0C13.9705 0 18 4.02947 18 9Z" fill="#0052B4"/>
<path d="M8.97583 9.00029H8.99996C8.99996 8.99212 8.99996 8.9843 8.99996 8.97617C8.99193 8.98423 8.9839 8.99226 8.97583 9.00029Z" fill="#F0F0F0"/>
<path d="M8.99981 4.69616C8.99981 3.11255 8.99981 2.07484 8.99981 0.000518799H8.9983C4.02844 0.00132739 -0.000183105 4.03041 -0.000183105 9.00048H4.69546V6.35631L7.33963 9.00048H8.97577C8.98382 8.99247 8.99183 8.98445 8.99985 8.9764C8.99985 8.37006 8.99985 7.82904 8.99985 7.34037L6.35564 4.69616H8.99981Z" fill="#F0F0F0"/>
<path d="M4.55337 1.17429C3.14575 1.97581 1.97554 3.14602 1.17401 4.55365V9.00038H3.52185V3.52216V3.52213H9.00011C9.00011 2.78163 9.00011 2.07618 9.00011 1.17429H4.55337Z" fill="#D80027"/>
<path d="M9.0003 7.89369L5.80274 4.69615H4.69598C4.69598 4.69612 4.69598 4.69615 4.69598 4.69615L9.00026 9.00044H9.0003C9.0003 9.00044 9.0003 8.23737 9.0003 7.89369Z" fill="#D80027"/>
<path d="M5.42815 10.5648L5.9221 11.5977L7.0375 11.3399L6.538 12.37L7.43497 13.0813L6.31817 13.3331L6.32129 14.4779L5.42815 13.7616L4.53504 14.4779L4.53817 13.3331L3.42133 13.0813L4.31834 12.37L3.81877 11.3399L4.93424 11.5977L5.42815 10.5648Z" fill="#F0F0F0"/>
<path d="M13.4753 12.5215L13.7223 13.0379L14.28 12.909L14.0302 13.4241L14.4787 13.7798L13.9203 13.9056L13.9219 14.478L13.4753 14.1199L13.0288 14.478L13.0303 13.9056L12.4719 13.7798L12.9204 13.4241L12.6707 12.909L13.2283 13.0379L13.4753 12.5215Z" fill="#F0F0F0"/>
<path d="M11.1776 7.04355L11.4245 7.55999L11.9822 7.43104L11.7325 7.94611L12.181 8.30179L11.6226 8.42765L11.6241 9.00006L11.1776 8.64193L10.731 9.00006L10.7325 8.42765L10.1741 8.30179L10.6226 7.94611L10.3729 7.43104L10.9306 7.55999L11.1776 7.04355Z" fill="#F0F0F0"/>
<path d="M13.4753 3.91321L13.7223 4.42965L14.28 4.30074L14.0303 4.81581L14.4787 5.17145L13.9203 5.29735L13.9219 5.86976L13.4753 5.51162L13.0288 5.86976L13.0303 5.29735L12.4719 5.17145L12.9204 4.81581L12.6707 4.30074L13.2283 4.42965L13.4753 3.91321Z" fill="#F0F0F0"/>
<path d="M15.4816 6.26083L15.7286 6.77728L16.2863 6.64833L16.0365 7.1634L16.485 7.51908L15.9266 7.64497L15.9282 8.21735L15.4816 7.85925L15.0351 8.21735L15.0366 7.64497L14.4782 7.51908L14.9267 7.1634L14.6769 6.64833L15.2346 6.77728L15.4816 6.26083Z" fill="#F0F0F0"/>
<path d="M14.0469 9.00024L14.2411 9.59811H14.8698L14.3612 9.96764L14.5555 10.5655L14.0469 10.196L13.5383 10.5655L13.7326 9.96764L13.224 9.59811H13.8526L14.0469 9.00024Z" fill="#F0F0F0"/>
</g>
<defs>
<clipPath id="clip0_203_2972">
<rect width="18" height="18" fill="white"/>
</clipPath>
</defs>
</svg>
