<svg width="20" height="20" viewBox="0 0 20 20" fill="none" xmlns="http://www.w3.org/2000/svg">
<path d="M12.0759 12.1667C11.6617 12.1667 11.3259 12.5024 11.3259 12.9167C11.3259 13.3309 11.6617 13.6667 12.0759 13.6667V12.1667ZM12.0833 13.6667C12.4976 13.6667 12.8333 13.3309 12.8333 12.9167C12.8333 12.5024 12.4976 12.1667 12.0833 12.1667V13.6667ZM7.91668 12.1667C7.50246 12.1667 7.16668 12.5024 7.16668 12.9167C7.16668 13.3309 7.50246 13.6667 7.91668 13.6667V12.1667ZM7.92415 13.6667C8.33836 13.6667 8.67415 13.3309 8.67415 12.9167C8.67415 12.5024 8.33836 12.1667 7.92415 12.1667V13.6667ZM16.4435 10.1294L17.1868 10.0293L16.4435 10.1294ZM13.7003 7.58257L13.7347 6.83336L13.7003 7.58257ZM13.7003 18.2507L13.7347 19L13.7003 18.2507ZM16.4435 15.7039L15.7002 15.6039V15.6039L16.4435 15.7039ZM6.29973 7.58257L6.33417 8.33178L6.29973 7.58257ZM3.55652 10.1294L2.81323 10.0293L3.55652 10.1294ZM6.29973 18.2507L6.33417 17.5015L6.29973 18.2507ZM3.55652 15.7039L4.29981 15.6039V15.6039L3.55652 15.7039ZM5.50001 7.49999C5.50001 7.9142 5.8358 8.24999 6.25001 8.24999C6.66422 8.24999 7.00001 7.9142 7.00001 7.49999H5.50001ZM13 7.49999C13 7.9142 13.3358 8.24999 13.75 8.24999C14.1642 8.24999 14.5 7.9142 14.5 7.49999H13ZM12.0759 12.9167V13.6667H12.0833V12.9167V12.1667H12.0759V12.9167ZM7.91668 12.9167V13.6667H7.92415V12.9167V12.1667H7.91668V12.9167ZM10 18.3333V17.5833C8.69057 17.5833 7.50287 17.5553 6.33417 17.5015L6.29973 18.2507L6.26528 19C7.45761 19.0548 8.66829 19.0833 10 19.0833V18.3333ZM13.7003 18.2507L13.6659 17.5015C12.4972 17.5553 11.3094 17.5833 10 17.5833V18.3333V19.0833C11.3317 19.0833 12.5424 19.0548 13.7347 19L13.7003 18.2507ZM16.4435 15.7039L17.1868 15.804C17.3105 14.8853 17.4167 13.9152 17.4167 12.9167H16.6667H15.9167C15.9167 13.8141 15.8211 14.7058 15.7002 15.6039L16.4435 15.7039ZM16.6667 12.9167H17.4167C17.4167 11.9181 17.3105 10.948 17.1868 10.0293L16.4435 10.1294L15.7002 10.2294C15.8211 11.1275 15.9167 12.0192 15.9167 12.9167H16.6667ZM10 7.49999V8.24999C11.3095 8.24999 12.4972 8.27805 13.6659 8.33178L13.7003 7.58257L13.7347 6.83336C12.5424 6.77855 11.3317 6.74999 10 6.74999V7.49999ZM6.29973 7.58257L6.33417 8.33178C7.50287 8.27805 8.69057 8.24999 10 8.24999V7.49999V6.74999C8.66829 6.74999 7.45761 6.77855 6.26528 6.83336L6.29973 7.58257ZM3.55652 10.1294L2.81323 10.0293C2.68953 10.948 2.58334 11.9181 2.58334 12.9167H3.33334H4.08334C4.08334 12.0192 4.1789 11.1275 4.29981 10.2294L3.55652 10.1294ZM3.33334 12.9167H2.58334C2.58334 13.9152 2.68953 14.8853 2.81323 15.804L3.55652 15.7039L4.29981 15.6039C4.1789 14.7058 4.08334 13.8141 4.08334 12.9167H3.33334ZM16.4435 10.1294L17.1868 10.0293C16.9527 8.29065 15.5122 6.91507 13.7347 6.83336L13.7003 7.58257L13.6659 8.33178C14.6943 8.37906 15.5595 9.18436 15.7002 10.2294L16.4435 10.1294ZM13.7003 18.2507L13.7347 19C15.5122 18.9182 16.9527 17.5427 17.1868 15.804L16.4435 15.7039L15.7002 15.6039C15.5595 16.649 14.6943 17.4543 13.6659 17.5015L13.7003 18.2507ZM6.29973 7.58257L6.26528 6.83336C4.48781 6.91507 3.04732 8.29065 2.81323 10.0293L3.55652 10.1294L4.29981 10.2294C4.44052 9.18436 5.30576 8.37906 6.33417 8.33178L6.29973 7.58257ZM6.29973 18.2507L6.33417 17.5015C5.30576 17.4543 4.44052 16.649 4.29981 15.6039L3.55652 15.7039L2.81323 15.804C3.04732 17.5427 4.48782 18.9182 6.26528 19L6.29973 18.2507ZM6.25001 7.49999H7.00001V5.41666H6.25001H5.50001V7.49999H6.25001ZM13.75 5.41666H13V7.49999H13.75H14.5V5.41666H13.75ZM10 1.66666V2.41666C11.6569 2.41666 13 3.7598 13 5.41666H13.75H14.5C14.5 2.93138 12.4853 0.916656 10 0.916656V1.66666ZM6.25001 5.41666H7.00001C7.00001 3.7598 8.34316 2.41666 10 2.41666V1.66666V0.916656C7.51473 0.916656 5.50001 2.93138 5.50001 5.41666H6.25001Z" fill="#4B5565"/>
</svg>
